<svg xmlns="http://www.w3.org/2000/svg" width="24" height="24" viewBox="0 0 24 24">
  <g fill="none" fill-rule="evenodd">
    <rect width="24" height="24" fill="#E9ECEF"/>
    <path fill="#6C757D" fill-rule="nonzero" d="M14.6250228,10.2499875 C14.6250228,10.7331483 14.2331857,11.1249854 13.7500249,11.1249854 C13.2668642,11.1249854 12.875027,10.7331483 12.875027,10.2499875 C12.875027,9.76682671 13.2668642,9.37498957 13.7500249,9.37498957 C14.2331857,9.37498957 14.6250228,9.76682671 14.6250228,10.2499875 Z M18.9237225,12.5195133 C19.1807638,13.09811 18.7572037,13.7499791 18.1239197,13.7499791 L17.2500166,13.7499791 L17.2500166,15.499975 C17.2500166,16.4665635 16.4666093,17.2499708 15.5000208,17.2499708 L14.6250228,17.2499708 L14.6250228,18.5624677 C14.6250228,18.8041816 14.4292378,18.9999666 14.1875239,18.9999666 L13.7500249,18.9999666 C13.508311,18.9999666 13.312526,18.8041816 13.312526,18.5624677 L13.312526,15.9374739 L15.5000208,15.9374739 C15.7417347,15.9374739 15.9375197,15.7416889 15.9375197,15.499975 L15.9375197,12.4374823 L17.4747742,12.4374823 C17.3077214,11.9942422 17.1351678,11.4856603 16.956072,10.9573718 C16.6191892,9.96397361 16.1581918,8.60335826 15.8519372,8.16831596 C15.0343503,7.00620936 13.6975272,6.31249687 12.2759226,6.31249687 L10.441172,6.31249687 C8.91321013,6.31249687 7.43910781,7.0994556 6.74622311,8.46116576 C5.90075852,10.1231224 6.34290376,12.0267929 7.62640137,13.1779514 L8.06253849,13.5692278 L8.06253849,18.5624677 C8.06253849,18.8041816 7.86675343,18.9999666 7.62503953,18.9999666 L7.18754057,18.9999666 C6.94582667,18.9999666 6.75004162,18.8041816 6.75004162,18.5624677 L6.75004162,14.1552211 C5.63167423,13.1522366 4.94180694,11.6808846 5.00386429,10.0462717 C5.11270497,7.18968442 7.6105399,5 10.4690498,5 L12.2759226,5 C14.1481372,5 15.8740738,5.91873713 16.9254438,7.41308018 C17.5991826,8.37064321 18.351134,11.2310757 18.9237225,12.5195133 Z"/>
  </g>
</svg>
